<svg xmlns="http://www.w3.org/2000/svg" version="1.1" xmlns:xlink="http://www.w3.org/1999/xlink" xmlns:svgjs="http://svgjs.com/svgjs" width="2400" height="600" preserveAspectRatio="none" viewBox="0 0 2400 600"><g mask="url(&quot;#SvgjsMask1052&quot;)" fill="none"><rect width="2400" height="600" x="0" y="0" fill="rgba(21, 67, 96, 1)"></rect><path d="M0,663.894C122.39,674.066,224.168,575.441,322.698,502.129C415.386,433.164,506.631,358.361,552.902,252.502C598.777,147.55,589.286,30.854,578.539,-83.181C567.295,-202.481,563.039,-329.515,489.157,-423.857C413.927,-519.921,291.638,-560.292,175.53,-597.8C56.693,-636.189,-71.829,-686.709,-188.758,-642.85C-304.149,-599.567,-345.943,-462.803,-428.447,-371.251C-513.075,-277.342,-659.004,-222.429,-679.975,-97.766C-700.94,26.863,-604.941,139.814,-531.749,242.842C-468.859,331.368,-375.109,383.799,-289.975,451.21C-194.056,527.161,-121.928,653.761,0,663.894" fill="#11364e"></path><path d="M2400 1525.479C2570.163 1531.6599999999999 2679.529 1349.548 2826.991 1264.4099999999999 2984.124 1173.688 3193.253 1158.96 3295.011 1008.738 3400.676 852.748 3427.292 640.309 3371.685 460.293 3318.341 287.6 3149.218 185.34300000000002 3006.434 74.52200000000005 2887.687-17.64300000000003 2749.587-63.596000000000004 2613.752-127.971 2448.791-206.149 2302.983-373.16600000000005 2122.735-344.279 1942.62-315.413 1839.341-127.05700000000002 1724.371 14.563999999999965 1612.829 151.962 1473.1889999999999 288.809 1465.26 465.605 1457.4769999999999 639.149 1585.164 783.995 1683.44 927.242 1767.2640000000001 1049.424 1878.7469999999998 1139.136 1992.49 1234.097 2123.327 1343.33 2229.671 1519.292 2400 1525.479" fill="#195072"></path></g><defs><mask id="SvgjsMask1052"><rect width="2400" height="600" fill="#ffffff"></rect></mask></defs></svg>